HIERARCHY
ROOT Hips
{
	OFFSET	0.00	0.00	0.00
	CHANNELS 6 Xposition Yposition Zposition Zrotation Xrotation Yrotation
	JOINT Spine
	{
		OFFSET	 0.00	0.01	 0.00
		CHANNELS 3 Zrotation Xrotation Yrotation
		JOINT Spine1
		{
			OFFSET	 0.00	 2.45913012437421	 0.00
			CHANNELS 3 Zrotation Xrotation Yrotation
            JOINT Neck
            {
                OFFSET	 0.00	 2.48462964506057	 0.00
                CHANNELS 3 Zrotation Xrotation Yrotation
                JOINT Head
                {
                    OFFSET	 0.00	 0.927524780924562	 0.00
                    CHANNELS 3 Zrotation Xrotation Yrotation
                    End Site 
                    {
                        OFFSET	 0.00	 1.14999962169752	 0.00
                    }
                }
            }
			JOINT LeftShoulder
			{
				OFFSET	 0.00	 2.48462964506057	 0.00
				CHANNELS 3 Zrotation Xrotation Yrotation
				JOINT LeftUpArm
				{
					OFFSET	 0.00	 1.24881979654096	 0.00
					CHANNELS 3 Zrotation Xrotation Yrotation
					JOINT LeftForeArm
					{
						OFFSET	 0.00	2.59758046908119	 0.00
						CHANNELS 3 Zrotation Xrotation Yrotation
						JOINT LeftHand
						{
							OFFSET	 0.00	2.45542024364365	 0.00
							CHANNELS 3 Zrotation Xrotation Yrotation
							JOINT LeftHandThumb 
							{
								OFFSET	 0.00	0.00	 0.00
								CHANNELS 3 Zrotation Xrotation Yrotation
								End Site
								{
									OFFSET	 0.00	0.00	1.00000003353624
								}
							}
							JOINT L_Wrist_End 
							{
								OFFSET	 0.00	0.99999967115358	 0.00
								CHANNELS 3 Zrotation Xrotation Yrotation
								End Site 
								{
									OFFSET	 0.00	 0.00	 0.00
								}
							}
						}
					}
				}
			}
			JOINT RightShoulder
			{
				OFFSET	 0.00	 2.48462964506057	 0.00
				CHANNELS 3 Zrotation Xrotation Yrotation
				JOINT RightUpArm
				{
					OFFSET	 0.00	 1.24881979654096	 0.00
					CHANNELS 3 Zrotation Xrotation Yrotation
					JOINT RightForeArm
					{
						OFFSET	 0.00	2.59758046908119	 0.00
						CHANNELS 3 Zrotation Xrotation Yrotation
						JOINT RightHand
						{
							OFFSET	 0.00	2.45542024364365	 0.00
							CHANNELS 3 Zrotation Xrotation Yrotation
							JOINT RightHandThumb 
							{
								OFFSET	 0.00	0.00	 0.00
								CHANNELS 3 Zrotation Xrotation Yrotation
								End Site
								{
									OFFSET	 0.00	0.00	1.00000003353624
								}
							}
							JOINT R_Wrist_End 
							{
								OFFSET	 0.00	0.99999967115358	 0.00
								CHANNELS 3 Zrotation Xrotation Yrotation
								End Site 
								{
									OFFSET	 0.00	 0.00	 0.00
								}
							}
						}
					}
				}
			}
		}
	}
	JOINT LeftUpLeg
	{
		OFFSET	 1.2719394002717	 0.00	 0.00
		CHANNELS 3 Zrotation Xrotation Yrotation
		JOINT LeftLowLeg
		{
			OFFSET	 0.00	-4.3429100912261	 0.00
			CHANNELS 3 Zrotation Xrotation Yrotation
			JOINT LeftFoot
			{
				OFFSET	 0.00	-4.48767017425826	 0.00
				CHANNELS 3 Zrotation Xrotation Yrotation
				JOINT LeftToeBase
                {
                    OFFSET	 0.00	0.00	 1.51507020887566
                    CHANNELS 3 Zrotation Xrotation Yrotation
                    End Site 
                    {
                        OFFSET	 0.00	0.00	 0.75000010571191
                    }
                }
			}
		}
	}
	JOINT RightUpLeg
	{
		OFFSET	 -1.2719393604653	 0.00	 0.00
		CHANNELS 3 Zrotation Xrotation Yrotation
		JOINT RightLowLeg
		{
			OFFSET	 0.00	-4.3429100912261	 0.00
			CHANNELS 3 Zrotation Xrotation Yrotation
			JOINT RightFoot
			{
				OFFSET	 0.00	-4.48767017425826	 0.00
				CHANNELS 3 Zrotation Xrotation Yrotation
				JOINT RightToeBase
                {
                    OFFSET	 0.00	0.00	 1.51507020887566
                    CHANNELS 3 Zrotation Xrotation Yrotation
                    End Site 
                    {
                        OFFSET	 0.00	0.00	 0.749999965609858
                    }
                }   
			}
		}
	}
}
MOTION 
Frames:	18 
Frame Time: 0.02 
  2.804460144042969 -2.393260040283203 9.449110107421875 -132.864 79.8086 510.558 1.70265 -6.14857 -9.24487 20.4564 -7.08853 2.18369 -32.6247 35.2181 15.7426 125.226 -71.0332 -257.691 -104.259796 -0.876557 4.98516 69.6008 24.4783 -42.4807 0.0 41.9311 0.0 89.3276 39.4569 -7.37404 0.0 0.0 0.0 0.0 0.0 0.0 112.7078 -4.13149 -4.70994 39.8594 3.68777 -2.58475 0.0 28.76 0.0 -15.5966 -7.44183 -12.6988 0.0 0.0 0.0 0.0 0.0 0.0 7.30876 -4.34975 -2.01808 0.0 5.78442 0.0 -14.4802 5.1351404 6.36399 0.0 -38.3152 0.0 6.48565 -5.56803 -0.945644 0.0 6.7119 0.0 14.4578 8.42886 -14.1887 0.0 -30.571999 0.0 
  2.7938299560546875 -2.4083599853515625 9.44968017578125 -134.412 79.5967 511.936 1.73476 -5.94962 -9.13029 20.7107 -7.6624 2.43325 -32.1138 35.2981 15.173 125.963 -70.6898 -256.724 -103.4265 -1.47145 5.04933 73.5946 24.7039 -39.9499 0.0 37.4066 0.0 91.3048 46.8982 -3.27968 0.0 0.0 0.0 0.0 0.0 0.0 112.6659 -4.32609 -4.66718 39.7463 3.43485 -2.47307 0.0 29.163 0.0 -15.149 -8.05067 -15.1576 0.0 0.0 0.0 0.0 0.0 0.0 7.25241 -4.46093 -1.81683 0.0 5.57645 0.0 -14.5594 5.2771397 6.46638 0.0 -37.821503 0.0 6.45272 -5.71542 -0.833897 0.0 6.5171 0.0 14.3584 8.45986 -14.1246 0.0 -30.4903 0.0 
  2.7852398681640627 -2.424530029296875 9.4510302734375 -135.97 79.2924 513.228 1.94634 -5.87163 -9.01765 20.9771 -8.18328 2.64094 -32.3152 35.0748 15.3958 126.528 -70.7383 -256.372 -101.9064 -2.36164 4.02466 74.8508 26.2843 -38.5557 0.0 32.819 0.0 79.9081 45.4371 5.24444 0.0 0.0 0.0 0.0 0.0 0.0 112.7359 -4.3847 -4.88569 39.4083 3.29346 -2.31917 0.0 29.4956 0.0 -15.2848 -7.41926 -14.1846 0.0 0.0 0.0 0.0 0.0 0.0 7.21812 -4.61383 -1.4242 0.0 5.36926 0.0 -14.6875 5.39736 6.52195 0.0 -37.526 0.0 6.44069 -5.89689 -0.654223 0.0 6.25318 0.0 14.2902 8.55523 -14.0153 0.0 -30.4112 0.0 
  2.7785400390625 -2.4378199768066406 9.454229736328125 -137.308 79.041 514.184 2.39319 -5.76856 -8.88627 21.0712 -8.53845 2.79543 -32.7854 34.6354 15.8661 127.369 -70.8228 -255.643 -100.6853 -2.82753 2.85206 74.8971 27.7935 -38.6177 0.0 27.4827 0.0 67.5126 40.0818 11.1569 0.0 0.0 0.0 0.0 0.0 0.0 112.9443 -4.47694 -4.98965 38.9301 3.3498 -2.38981 0.0 29.6406 0.0 -15.3107 -7.6678 -15.1678 0.0 0.0 0.0 0.0 0.0 0.0 7.17071 -4.68725 -1.04072 0.0 5.15883 0.0 -14.8403 5.54661 6.68986 0.0 -37.6273 0.0 6.41265 -6.04824 -0.424699 0.0 6.00778 0.0 14.163 8.7721405 -13.8658 0.0 -30.371 0.0 
  2.773609924316406 -2.4478799438476564 9.4589599609375 -138.688 78.876 515.167 2.91157 -5.59667 -8.79465 20.9823 -8.79197 2.87744 -33.0235 34.1753 16.1624 128.199 -70.7065 -254.607 -100.376 -2.58377 2.02655 75.3046 28.5491 -39.9483 0.0 21.1655 0.0 58.5177 33.3815 13.0417 0.0 0.0 0.0 0.0 0.0 0.0 112.9879 -4.60735 -4.68091 38.7613 3.50261 -2.82676 0.0 29.2677 0.0 -15.3712 -7.63708 -15.4265 0.0 0.0 0.0 0.0 0.0 0.0 7.05646 -4.73131 -0.69443 0.0 5.00048 0.0 -14.9983 5.74772 6.88473 0.0 -37.5297 0.0 6.31878 -6.18167 -0.10499 0.0 5.8483 0.0 14.1528 8.927589 -13.7713 0.0 -30.2897 0.0 
  2.76885009765625 -2.457850036621094 9.463709716796876 -139.885 78.8149 516.201 3.33219 -5.48116 -8.92398 20.8382 -8.72731 2.66638 -32.95 33.4872 16.423 128.755 -70.4771 -253.687 -100.5464 -2.25003 1.26948 75.9583 28.9906 -42.3378 0.0 14.7434 0.0 53.3706 23.7851 22.6272 0.0 0.0 0.0 0.0 0.0 0.0 112.8165 -4.59221 -4.28102 38.8874 3.83559 -3.36165 0.0 28.5581 0.0 -15.4995 -7.58999 -16.0086 0.0 0.0 0.0 0.0 0.0 0.0 6.91393 -4.74589 -0.517734 0.0 4.87024 0.0 -15.1046 6.0272903 7.01035 0.0 -37.449303 0.0 6.19312 -6.17949 -0.0938811 0.0 5.62683 0.0 14.0272 9.10537 -13.7069 0.0 -30.2389 0.0 
  2.7649700927734373 -2.468630065917969 9.467949829101563 -140.933 78.7971 517.442 3.53986 -5.70189 -9.19738 20.7779 -8.13715 2.20406 -32.7289 32.8454 16.5068 129.44 -70.1922 -252.645 -100.7568 -1.99538 0.608371 76.5194 29.4486 -47.8434 0.0 8.72689 0.0 52.9768 11.9771 25.1644 0.0 0.0 0.0 0.0 0.0 0.0 112.534 -4.26438 -3.72558 39.0117 3.84642 -3.81942 0.0 28.0645 0.0 -15.4945 -8.04016 -16.5536 0.0 0.0 0.0 0.0 0.0 0.0 6.76237 -4.8446 -0.604251 0.0 4.86034 0.0 -15.2421 6.3153696 6.97533 0.0 -37.3815 0.0 6.0581 -6.12852 -0.14328 0.0 5.45433 0.0 13.984 9.094009 -13.9369 0.0 -30.168999 0.0 
  2.7578399658203123 -2.481369934082031 9.472739868164062 -142.651 78.6004 519.457 3.63355 -5.78197 -9.73533 20.7517 -8.00622 1.59414 -32.6371 31.7988 17.0845 129.503 -70.137 -252.405 -100.8273 -2.58997 0.68573 76.8349 29.0595 -62.2409 0.0 5.47346 0.0 55.7416 2.13275 27.2836 0.0 0.0 0.0 0.0 0.0 0.0 112.3155 -3.80478 -4.08634 39.0336 4.2938 -3.92776 0.0 27.6046 0.0 -15.3875 -9.01135 -18.2621 0.0 0.0 0.0 0.0 0.0 0.0 6.60077 -5.14377 -0.793531 0.0 4.79527 0.0 -15.4465 6.7403297 6.78785 0.0 -37.3133 0.0 5.90787 -6.39434 0.404618 0.0 5.5323 0.0 14.0743 8.76692 -14.7529 0.0 -30.0211 0.0 
  2.7480599975585935 -2.485769958496094 9.477310180664062 -144.209 78.5247 521.085 3.72872 -5.55969 -10.018 20.6306 -8.02153 1.28937 -32.437 31.0576 17.3278 129.769 -69.9784 -251.866 -100.8987 -2.44091 0.0878089 76.3837 28.4588 -79.1821 0.0 5.18694 0.0 63.099 -3.80844 28.1358 0.0 0.0 0.0 0.0 0.0 0.0 112.1063 -3.35596 -4.55824 39.1226 4.61906 -3.69015 0.0 27.1023 0.0 -15.22 -9.51097 -19.0387 0.0 0.0 0.0 0.0 0.0 0.0 6.44919 -5.33044 -0.652241 0.0 4.76532 0.0 -15.6649 7.19205 6.47625 0.0 -37.309998 0.0 5.725 -6.55442 -0.00739627 0.0 5.49099 0.0 13.8032 8.84328 -14.6514 0.0 -30.0654 0.0 
  2.737359924316406 -2.4931300354003905 9.48156982421875 -145.551 78.3569 522.6 3.8409 -5.41719 -10.1986 20.4528 -8.24357 1.14081 -32.1867 30.8054 17.1985 129.972 -69.8035 -251.344 -100.9409 -2.45338 -0.899767 76.4424 28.2576 -90.7212 0.0 5.12633 0.0 67.7801 -6.62746 32.9207 0.0 0.0 0.0 0.0 0.0 0.0 111.962204 -3.00508 -4.95709 39.1654 4.55575 -3.37632 0.0 26.7201 0.0 -15.149 -9.8142 -19.6628 0.0 0.0 0.0 0.0 0.0 0.0 6.37245 -5.58162 -0.602977 0.0 4.71544 0.0 -15.9632 7.64794 6.10478 0.0 -37.4286 0.0 5.60216 -6.76271 -0.081753 0.0 5.47903 0.0 13.709 8.79288 -14.8192 0.0 -29.9999 0.0 
  2.725799865722656 -2.502330017089844 9.485159912109374 -146.499 78.1839 523.623 3.91987 -5.32265 -10.2642 20.3603 -8.42106 1.10544 -32.2432 30.6846 17.3133 130.126 -69.727 -251.111 -101.1288 -2.94854 -1.19572 77.3748 27.2578 -95.7583 0.0 4.23756 0.0 64.5903 -7.71795 35.6794 0.0 0.0 0.0 0.0 0.0 0.0 111.7665 -2.65195 -5.18696 39.2369 4.30042 -3.12196 0.0 26.2343 0.0 -15.1299 -9.77976 -20.2529 0.0 0.0 0.0 0.0 0.0 0.0 6.37175 -5.72817 -0.375367 0.0 4.57869 0.0 -16.1718 8.037769 5.74659 0.0 -37.4271 0.0 5.55821 -6.90873 0.193539 0.0 5.40981 0.0 13.7472 8.739201 -15.116 0.0 -29.9318 0.0 
  2.714150085449219 -2.5128799438476563 9.488499755859374 -147.114 78.0367 524.252 3.94612 -5.26373 -10.1663 20.4367 -8.51581 1.22552 -32.5213 30.5081 17.452 130.071 -70.0865 -251.342 -101.1686 -4.13237 -1.27723 78.3608 26.5659 -93.0518 0.0 2.8729 0.0 56.7697 -6.70172 33.3877 0.0 0.0 0.0 0.0 0.0 0.0 111.5847 -2.50073 -5.14808 39.1353 3.84006 -3.19078 0.0 25.94 0.0 -15.1892 -9.96303 -20.612 0.0 0.0 0.0 0.0 0.0 0.0 6.41948 -5.76619 -0.00826751 0.0 4.37115 0.0 -16.3393 8.40722 5.37685 0.0 -37.4398 0.0 5.55125 -7.02429 0.268849 0.0 5.37289 0.0 13.7453 8.7886505 -15.1375 0.0 -29.9403 0.0 
  2.7027899169921876 -2.5278900146484373 9.49052978515625 -147.369 77.9154 524.588 4.0017 -5.32643 -9.93288 20.3989 -8.59127 1.48102 -32.6775 30.5837 17.3948 129.719 -70.4776 -251.912 -100.8672 -5.27842 -1.15832 78.7511 26.4294 -84.4692 0.0 2.36295 0.0 51.8234 -3.21087 28.8633 0.0 0.0 0.0 0.0 0.0 0.0 111.5185 -2.57977 -5.11205 38.9044 3.35189 -3.27136 0.0 25.5802 0.0 -15.0665 -10.2857 -20.2986 0.0 0.0 0.0 0.0 0.0 0.0 6.50535 -5.75079 0.214199 0.0 4.17234 0.0 -16.4596 8.6597 5.14145 0.0 -37.4282 0.0 5.59616 -7.01758 0.107889 0.0 5.24832 0.0 13.7615 8.87337 -15.0014 0.0 -29.9286 0.0 
  2.6906298828125 -2.5414500427246094 9.493150024414062 -147.374 77.8168 524.666 3.94302 -5.42455 -9.54602 20.515 -8.57783 1.88868 -32.7298 30.7852 17.1412 129.243 -70.9124 -252.603 -100.6951 -6.0423 -1.41733 78.7392 26.7028 -75.8617 0.0 3.10841 0.0 51.5954 1.7424 27.1237 0.0 0.0 0.0 0.0 0.0 0.0 111.4456 -2.91186 -4.91231 38.6346 2.91177 -3.29707 0.0 25.0826 0.0 -15.3857 -9.9369 -20.8409 0.0 0.0 0.0 0.0 0.0 0.0 6.6138 -5.74637 0.301583 0.0 4.04116 0.0 -16.554 8.83169 5.10396 0.0 -37.4065 0.0 5.6665 -6.98782 -0.279926 0.0 5.12787 0.0 13.7116 9.08696 -14.6092 0.0 -29.884499 0.0 
  2.677179870605469 -2.553179931640625 9.494719848632812 -147.291 77.8413 524.719 3.78783 -5.4481 -9.12724 20.6394 -8.50291 2.32886 -32.6177 30.9613 16.7111 128.906 -71.3824 -253.265 -100.7669 -6.33315 -1.99111 78.6738 26.8089 -68.4699 0.0 5.35352 0.0 50.7514 3.1354 24.2323 0.0 0.0 0.0 0.0 0.0 0.0 111.2805 -3.36988 -4.37196 38.5734 2.33675 -3.14496 0.0 24.6713 0.0 -15.4819 -9.94313 -21.2066 0.0 0.0 0.0 0.0 0.0 0.0 6.69559 -5.72915 0.264417 0.0 4.07017 0.0 -16.7485 8.90744 5.10197 0.0 -37.2346 0.0 5.73296 -6.96112 -0.485182 0.0 5.23689 0.0 13.6655 9.11283 -14.4329 0.0 -29.854 0.0 
  2.662170104980469 -2.5622601318359375 9.494869995117188 -146.841 77.9489 524.603 3.56923 -5.4346 -8.76422 20.651 -8.4689 2.73238 -31.9385 31.5623 15.7027 128.387 -71.4393 -253.679 -100.8107 -6.16851 -2.02508 79.1464 26.2485 -65.6193 0.0 8.12433 0.0 45.9651 0.13947 21.2098 0.0 0.0 0.0 0.0 0.0 0.0 111.1267 -3.73743 -3.87972 38.6166 1.60539 -2.85138 0.0 24.2876 0.0 -15.7511 -9.82145 -21.4214 0.0 0.0 0.0 0.0 0.0 0.0 6.81378 -5.73991 -0.0995843 0.0 4.21846 0.0 -16.9084 8.86334 5.1989 0.0 -37.117798 0.0 5.83516 -6.86368 -0.81499 0.0 5.38084 0.0 13.6468 9.06292 -14.3132 0.0 -29.7866 0.0 
  2.64593994140625 -2.57125 9.494910278320312 -146.201 78.1024 524.544 3.2618 -5.42679 -8.55476 20.6283 -8.42529 2.98635 -31.2301 32.1262 14.8606 127.995 -71.4037 -254.219 -100.588196 -6.17855 -1.60495 80.1178 26.2541 -72.3134 0.0 9.65314 0.0 42.2909 -4.83168 23.8637 0.0 0.0 0.0 0.0 0.0 0.0 110.989 -3.99937 -3.69223 38.6905 0.989399 -2.29878 0.0 23.9907 0.0 -15.9569 -9.96107 -21.6113 0.0 0.0 0.0 0.0 0.0 0.0 6.92495 -5.81577 -0.505338 0.0 4.46943 0.0 -17.0181 8.83909 5.20252 0.0 -36.9505 0.0 5.94683 -6.73493 -1.05373 0.0 5.58316 0.0 13.7679 8.87179 -14.4343 0.0 -29.6931 0.0 
  2.629100036621094 -2.580780029296875 9.49552001953125 -145.238 78.1877 524.353 2.92268 -5.5594 -8.51709 20.7104 -8.24063 3.02842 -30.6139 32.4831 14.0689 127.663 -71.4956 -254.651 -100.6377 -6.10597 -0.808878 81.9957 26.0113 -81.5434 0.0 9.19641 0.0 40.3715 -8.21382 26.3868 0.0 0.0 0.0 0.0 0.0 0.0 110.7506 -4.15324 -3.81208 38.8228 0.69609 -1.66448 0.0 23.7175 0.0 -16.3607 -10.1583 -22.1093 0.0 0.0 0.0 0.0 0.0 0.0 7.09526 -5.95901 -1.07111 0.0 4.65357 0.0 -17.1117 8.8402405 5.22331 0.0 -36.8167 0.0 6.13039 -6.71601 -0.924581 0.0 5.9408 0.0 14.1055 8.51105 -14.9326 0.0 -29.4149 0.0 
